# Blender v2.79 (sub 0) OBJ File: ''
# www.blender.org
mtllib fusibleBTLow.mtl
o Montaje_habitaciónSimplificadoAlv_-_Estacion_BT-3_Sub-1
v 0.134815 1.014957 2.065991
v 0.146065 1.029957 2.065991
v 0.134815 1.014957 2.050991
v 0.146065 1.029957 2.050991
v 0.153565 1.029957 2.065991
v 0.134815 1.004957 2.065991
v 0.153565 1.029957 2.050991
v 0.134815 1.004957 2.050991
v 0.124815 1.004957 2.050991
v 0.124815 1.004957 2.065991
v 0.124815 0.939957 2.090991
v 0.124815 1.014957 2.065991
v 0.124815 1.114957 2.090991
v 0.124815 0.939957 1.995991
v 0.124815 1.004957 2.035990
v 0.124815 1.014957 2.050991
v 0.124815 1.014957 2.035990
v 0.124815 1.114957 1.995991
v 0.124815 1.014957 2.020991
v 0.124815 1.004957 2.020991
v 0.074815 0.939957 1.995991
v 0.074815 1.114957 1.995991
v 0.074815 0.939957 2.090991
v 0.074815 1.114957 2.090991
v 0.146065 1.049957 2.065991
v 0.153565 1.049957 2.065991
v 0.146065 1.035582 2.050991
v 0.134815 1.014957 2.035990
v 0.134815 1.004957 2.035990
v 0.146065 1.029957 2.035990
v 0.153565 1.029957 2.035990
v 0.146065 1.035582 2.035990
v 0.134815 1.004957 2.020991
v 0.146065 1.049957 2.020991
v 0.153565 1.049957 2.020991
v 0.146065 1.029957 2.020991
v 0.153565 1.029957 2.020991
v 0.134815 1.014957 2.020991
v 0.146065 1.037457 2.058491
v 0.146065 1.037457 2.028491
v 0.146065 1.044957 2.058491
v 0.146065 1.044957 2.028491
v 0.153565 1.037457 2.028491
v 0.153565 1.037457 2.058491
v 0.153565 1.044957 2.028491
v 0.153565 1.044957 2.058491
vt 0.500000 0.648148
vt 0.551724 0.648148
vt 0.500000 0.703704
vt 0.551724 0.703704
vt 0.344828 0.740741
vt 0.344828 0.648148
vt 0.396552 0.740741
vt 0.396552 0.648148
vt 0.137931 0.240741
vt 0.086207 0.240741
vt 0.000000 0.000000
vt 0.086207 0.277778
vt 0.000000 0.648148
vt 0.327586 0.000000
vt 0.189655 0.240741
vt 0.137931 0.277778
vt 0.189655 0.277778
vt 0.327586 0.648148
vt 0.241379 0.277778
vt 0.241379 0.240741
vt 0.827586 0.648148
vt 0.827586 0.000000
vt 1.000000 0.648148
vt 1.000000 0.000000
vt 0.344828 0.648148
vt 0.344828 1.000000
vt 0.172414 0.648148
vt 0.172414 1.000000
vt 0.655172 0.648148
vt 0.655172 0.000000
vt 0.827586 0.648148
vt 0.827586 0.000000
vt 0.172414 0.648148
vt 0.172414 1.000000
vt 0.000000 0.648148
vt 0.000000 1.000000
vt 0.327586 0.648148
vt 0.327586 0.000000
vt 0.655172 0.648148
vt 0.655172 0.000000
vt 0.678588 0.814215
vt 0.660692 0.845874
vt 0.649112 0.794994
vt 0.631217 0.826653
vt 0.642796 0.725882
vt 0.620690 0.711466
vt 0.678588 0.662564
vt 0.656481 0.648148
vt 0.379310 0.870370
vt 0.379310 0.814815
vt 0.413793 0.870370
vt 0.413793 0.814815
vt 0.812348 0.648148
vt 0.833038 0.677778
vt 0.784762 0.670370
vt 0.805451 0.700000
vt 0.784762 0.786111
vt 0.805451 0.769444
vt 0.817089 0.786111
vt 0.448276 0.870370
vt 0.448276 0.814815
vt 0.482759 0.870370
vt 0.482759 0.814815
vt 0.736486 0.677778
vt 0.757176 0.648148
vt 0.764072 0.700000
vt 0.784762 0.670370
vt 0.764072 0.769444
vt 0.784762 0.786111
vt 0.752434 0.786111
vt 0.413793 0.870370
vt 0.413793 0.814815
vt 0.448276 0.870370
vt 0.448276 0.814815
vt 0.736486 0.831458
vt 0.714379 0.845874
vt 0.700694 0.768141
vt 0.678588 0.782557
vt 0.707011 0.699028
vt 0.689115 0.667370
vt 0.736486 0.679807
vt 0.718590 0.648148
vt 0.344828 0.870370
vt 0.344828 0.814815
vt 0.379310 0.870370
vt 0.379310 0.814815
vt 0.551724 0.814815
vt 0.500000 0.814815
vt 0.551724 0.759259
vt 0.500000 0.759259
vt 0.571121 0.703704
vt 0.577586 0.675926
vt 0.577586 0.787037
vt 0.571121 0.759259
vt 0.603448 0.675926
vt 0.620690 0.648148
vt 0.603448 0.787037
vt 0.620690 0.814815
vt 0.858900 0.814815
vt 0.833038 0.814815
vt 0.858900 0.648148
vt 0.833038 0.648148
vt 0.474138 0.768519
vt 0.370690 0.768519
vt 0.448276 0.740741
vt 0.500000 0.740741
vt 0.474138 0.796296
vt 0.500000 0.814815
vt 0.370690 0.796296
vt 0.344828 0.814815
vt 0.500000 0.648148
vt 0.448276 0.648148
vt 0.482759 0.870370
vt 0.482759 0.814815
vt 0.508621 0.870370
vt 0.508621 0.814815
vt 0.534483 0.814815
vt 0.534483 0.842593
vt 0.508621 0.814815
vt 0.508621 0.842593
vt 0.736486 0.897222
vt 0.736486 0.786111
vt 0.762348 0.897222
vt 0.762348 0.786111
vt 0.560345 0.814815
vt 0.560345 0.842593
vt 0.534483 0.814815
vt 0.534483 0.842593
vt 0.788210 0.786111
vt 0.788210 0.897222
vt 0.762348 0.786111
vt 0.762348 0.897222
vn -0.8000 0.6000 0.0000
vn 0.8000 -0.6000 0.0000
vn 1.0000 0.0000 0.0000
vn 0.0000 0.0000 -1.0000
vn 0.0000 -1.0000 0.0000
vn 0.0000 0.0000 1.0000
vn 0.0000 1.0000 0.0000
vn -1.0000 0.0000 0.0000
vn -0.6000 -0.8000 0.0000
usemtl None
s off
f 1/1/1 2/2/1 3/3/1
f 3/3/1 2/2/1 4/4/1
f 5/5/2 6/6/2 7/7/2
f 7/7/2 6/6/2 8/8/2
f 9/9/3 10/10/3 11/11/3
f 11/11/3 10/10/3 12/12/3
f 11/11/3 12/12/3 13/13/3
f 11/11/3 14/14/3 9/9/3
f 9/9/3 14/14/3 15/15/3
f 9/9/3 15/15/3 16/16/3
f 16/16/3 15/15/3 17/17/3
f 12/12/3 16/16/3 13/13/3
f 13/13/3 16/16/3 17/17/3
f 13/13/3 17/17/3 18/18/3
f 18/18/3 17/17/3 19/19/3
f 18/18/3 19/19/3 14/14/3
f 14/14/3 19/19/3 20/20/3
f 14/14/3 20/20/3 15/15/3
f 21/21/4 22/22/4 14/23/4
f 14/23/4 22/22/4 18/24/4
f 23/25/5 21/26/5 11/27/5
f 11/27/5 21/26/5 14/28/5
f 24/29/6 23/30/6 13/31/6
f 13/31/6 23/30/6 11/32/6
f 22/33/7 24/34/7 18/35/7
f 18/35/7 24/34/7 13/36/7
f 23/37/8 24/38/8 21/39/8
f 21/39/8 24/38/8 22/40/8
f 12/41/6 10/42/6 1/43/6
f 1/43/6 10/42/6 6/44/6
f 1/43/6 6/44/6 2/45/6
f 2/45/6 6/44/6 5/46/6
f 2/45/6 5/46/6 25/47/6
f 25/47/6 5/46/6 26/48/6
f 8/49/5 6/50/5 9/51/5
f 9/51/5 6/50/5 10/52/5
f 9/53/4 16/54/4 8/55/4
f 8/55/4 16/54/4 3/56/4
f 8/55/4 3/56/4 7/57/4
f 7/57/4 3/56/4 4/58/4
f 7/57/4 4/58/4 27/59/4
f 1/60/7 3/61/7 12/62/7
f 12/62/7 3/61/7 16/63/7
f 17/64/6 15/65/6 28/66/6
f 28/66/6 15/65/6 29/67/6
f 28/66/6 29/67/6 30/68/6
f 30/68/6 29/67/6 31/69/6
f 30/68/6 31/69/6 32/70/6
f 33/71/5 29/72/5 20/73/5
f 20/73/5 29/72/5 15/74/5
f 34/75/4 35/76/4 36/77/4
f 36/77/4 35/76/4 37/78/4
f 36/77/4 37/78/4 38/79/4
f 38/79/4 37/78/4 33/80/4
f 38/79/4 33/80/4 19/81/4
f 19/81/4 33/80/4 20/82/4
f 28/83/7 38/84/7 17/85/7
f 17/85/7 38/84/7 19/86/7
f 36/87/1 38/88/1 30/89/1
f 30/89/1 38/88/1 28/90/1
f 27/91/8 4/4/8 2/2/8
f 39/92/8 40/93/8 32/94/8
f 32/94/8 27/91/8 39/92/8
f 39/92/8 27/91/8 2/2/8
f 39/92/8 2/2/8 41/95/8
f 41/95/8 2/2/8 25/96/8
f 41/95/8 25/96/8 42/97/8
f 42/97/8 25/96/8 34/98/8
f 42/97/8 34/98/8 40/93/8
f 40/93/8 34/98/8 36/87/8
f 40/93/8 36/87/8 32/94/8
f 32/94/8 36/87/8 30/89/8
f 25/99/7 26/100/7 34/101/7
f 34/101/7 26/100/7 35/102/7
f 43/103/3 44/104/3 7/7/3
f 7/7/3 31/105/3 43/103/3
f 43/103/3 31/105/3 37/106/3
f 43/103/3 37/106/3 45/107/3
f 45/107/3 37/106/3 35/108/3
f 45/107/3 35/108/3 46/109/3
f 46/109/3 35/108/3 26/110/3
f 46/109/3 26/110/3 44/104/3
f 44/104/3 26/110/3 5/5/3
f 44/104/3 5/5/3 7/7/3
f 33/111/2 37/106/2 29/112/2
f 29/112/2 37/106/2 31/105/2
f 31/113/9 7/114/9 32/115/9
f 32/115/9 7/114/9 27/116/9
f 46/117/4 44/118/4 41/119/4
f 41/119/4 44/118/4 39/120/4
f 45/121/5 46/122/5 42/123/5
f 42/123/5 46/122/5 41/124/5
f 43/125/6 45/126/6 40/127/6
f 40/127/6 45/126/6 42/128/6
f 44/129/7 43/130/7 39/131/7
f 39/131/7 43/130/7 40/132/7
